<svg width="61" height="61" viewBox="0 0 61 61" fill="none" xmlns="http://www.w3.org/2000/svg">
<path d="M20.5 28.025V28M40.5 28.025V28M20.5 20.5V18C20.5 15.3478 21.5536 12.8043 23.4289 10.9289C25.3043 9.05357 27.8478 8 30.5 8C33.1523 8 35.6958 9.05357 37.571 10.9289C39.4465 12.8043 40.5 15.3478 40.5 18V20.5M20.5 20.5H17.6007C15.0002 20.5 12.8339 22.4933 12.6179 25.0848L10.9513 45.0848C10.7084 47.9998 13.0088 50.5 15.934 50.5H45.066C47.9913 50.5 50.2918 47.9998 50.0488 45.0848L48.382 25.0848C48.166 22.4933 45.9998 20.5 43.3993 20.5H40.5M20.5 20.5H40.5" stroke="#fff" stroke-width="3.75" stroke-linecap="round" stroke-linejoin="round"/>
</svg>
